<svg xmlns="http://www.w3.org/2000/svg" viewBox="0 0 600 600"><style><![CDATA[.screen{mix-blend-mode:screen}]]></style><radialGradient id="a" cx="389" cy="935" r="120.6" gradientTransform="translate(0 -690)" gradientUnits="userSpaceOnUse"><stop offset="0" stop-color="#222" stop-opacity=".5"/><stop offset=".4" stop-color="#222" stop-opacity=".75"/><stop offset=".98" stop-color="#111"/></radialGradient><circle cx="389" cy="245" r="120.6" fill="url(#a)"/><linearGradient id="b" x1="-420.55" x2="-221.064" y1="407.159" y2="207.674" gradientTransform="translate(865.773 -211.892) scale(1.4862)" gradientUnits="userSpaceOnUse"><stop offset=".15" stop-color="#33669a"/><stop offset="1" stop-color="#7bcbb6"/></linearGradient><linearGradient id="c" x1="-420.897" x2="-220.716" y1="207.327" y2="407.506" gradientTransform="translate(865.773 -211.892) scale(1.4862)" gradientUnits="userSpaceOnUse"><stop offset=".15" stop-color="#33669a"/><stop offset="1" stop-color="#7bcbb6"/></linearGradient><path fill="url(#b)" fill-opacity=".95" stroke="url(#c)" stroke-miterlimit="10" d="M389 454.7c-115.7 0-209.7-94-209.7-209.7S273.3 35.3 389 35.3s209.7 94 209.7 209.7S504.6 454.7 389 454.7zm0-330.3c-66.5 0-120.6 54.1-120.6 120.6S322.5 365.6 389 365.6 509.6 311.5 509.6 245 455.4 124.4 389 124.4z" class="screen o"/><linearGradient id="d" x1="-480.469" x2="-280.9" y1="407.208" y2="207.638" gradientTransform="translate(865.773 -211.892) scale(1.4862)" gradientUnits="userSpaceOnUse"><stop offset=".15" stop-color="#37ba95"/><stop offset="1" stop-color="#f79668"/></linearGradient><linearGradient id="e" x1="-396.917" x2="-396.917" y1="448.954" y2="165.858" gradientTransform="translate(865.773 -211.892) scale(1.4862)" gradientUnits="userSpaceOnUse"><stop offset=".15" stop-color="#37ba95"/><stop offset="1" stop-color="#f79668"/></linearGradient><path fill="url(#d)" fill-opacity=".9" stroke="url(#e)" stroke-miterlimit="10" d="M300 454.6c-53.8 0-107.4-20.4-148.3-61.3-81.8-81.8-81.8-214.8 0-296.6s214.8-81.8 296.6 0l-63 63c-47-47-123.5-47-170.4 0-47 47-47 123.5 0 170.4 42.8 42.8 110.3 46.6 157.4 11.3v-104h89.1v142.8l-13.1 13.1c-40.9 40.9-94.6 61.3-148.3 61.3z" class="screen g"/><linearGradient id="f" x1="-540.454" x2="-340.885" y1="407.174" y2="207.605" gradientTransform="translate(865.773 -211.892) scale(1.4862)" gradientUnits="userSpaceOnUse"><stop offset="0" stop-color="#8951a0"/><stop offset=".75" stop-color="#af3666"/></linearGradient><linearGradient id="g" x1="-540.775" x2="-340.565" y1="207.285" y2="407.494" gradientTransform="translate(865.773 -211.892) scale(1.4862)" gradientUnits="userSpaceOnUse"><stop offset="0" stop-color="#8951a0"/><stop offset=".75" stop-color="#af3666"/></linearGradient><path fill="url(#f)" fill-opacity=".95" stroke="url(#g)" stroke-miterlimit="10" d="M210.9 454.6c-53.8 0-107.4-20.4-148.3-61.3-81.8-81.8-81.8-214.8 0-296.6s214.8-81.8 296.6 0l-63 63c-47-47-123.5-47-170.4 0-47 47-47 123.5 0 170.4s123.5 47 170.4 0l63 63c-40.9 41.1-94.5 61.5-148.3 61.5z" class="screen c"/><path fill="#404041" stroke="#404041" stroke-miterlimit="10" d="M23.6 559.9c0-18.7 14.4-32.1 33.7-32.1 10.7 0 19.7 3.9 25.6 11l-9.2 8.5c-4.2-4.8-9.4-7.3-15.6-7.3-11.6 0-19.9 8.2-19.9 19.9s8.3 19.9 19.9 19.9c6.2 0 11.5-2.5 15.6-7.4l9.2 8.5C77 588.1 68 592 57.2 592c-19.3 0-33.6-13.4-33.6-32.1zm79.6 0c0-18.5 14.4-32.1 34-32.1 19.5 0 34 13.6 34 32.1s-14.5 32.1-34 32.1c-19.6 0-34-13.7-34-32.1zm53.5 0c0-11.8-8.3-19.9-19.4-19.9s-19.4 8.1-19.4 19.9 8.3 19.9 19.4 19.9c11 0 19.4-8.1 19.4-19.9zm80.6 30.6l-11.8-17h-13v17h-14v-62h26.2c16.1 0 26.3 8.6 26.3 22.5 0 9.3-4.6 16.1-12.4 19.5l13.5 19.9-14.8.1zm-12.9-50h-11.9v22h11.9c8.9 0 13.4-4.2 13.4-10.9-.1-7-4.5-11.1-13.4-11.1zm104.1 39v11h-48v-62h47v12h-33v13h29v11h-29v15h34zm59-10.9v21.9h-14v-22.1l-23.4-39.9H365l16.1 27.5 16.1-27.5h13.7l-23.4 40.1zm83.9-10.1h13.1v25.2c-6.8 5.2-16.3 7.9-25.1 7.9-19.5 0-33.9-13.4-33.9-32.1s14.4-32.1 34.2-32.1c10.9 0 20 3.7 26 10.7l-9.2 8.5c-4.5-4.8-9.8-7-16.1-7-12.1 0-20.3 8.1-20.3 19.9 0 11.6 8.3 19.9 20.2 19.9 3.9 0 7.5-.7 11.2-2.7v-18.2h-.1zm38.6 1.4c0-18.5 14.4-32.1 34-32.1 19.5 0 34 13.6 34 32.1S563.5 592 544 592c-19.7 0-34-13.7-34-32.1zm53.4 0c0-11.8-8.3-19.9-19.4-19.9-11.1 0-19.4 8.1-19.4 19.9s8.3 19.9 19.4 19.9c11.1 0 19.4-8.1 19.4-19.9z" class="coreygo"/></svg>